<mxfile host="65bd71144e">
    <diagram id="vwwQ8WGMWeFYuftNzn4D" name="Existing Context">
        <mxGraphModel dx="1620" dy="798" grid="1" gridSize="10" guides="1" tooltips="1" connect="1" arrows="1" fold="1" page="1" pageScale="1" pageWidth="1100" pageHeight="850" background="none" math="0" shadow="0">
            <root>
                <mxCell id="0"/>
                <mxCell id="1" parent="0"/>
                <mxCell id="8" style="edgeStyle=none;html=1;dashed=1;rounded=0;" parent="1" source="3" target="4" edge="1">
                    <mxGeometry relative="1" as="geometry">
                        <mxPoint x="510" y="260" as="targetPoint"/>
                        <Array as="points">
                            <mxPoint x="130" y="160"/>
                            <mxPoint x="520" y="160"/>
                        </Array>
                    </mxGeometry>
                </mxCell>
                <object placeholders="1" c4Name="Cliente" c4Type="Person" c4Description="Cliente do sistema de negociação" label="&lt;font style=&quot;font-size: 16px&quot;&gt;&lt;b&gt;%c4Name%&lt;/b&gt;&lt;/font&gt;&lt;div&gt;[%c4Type%]&lt;/div&gt;&lt;br&gt;&lt;div&gt;&lt;font style=&quot;font-size: 11px&quot;&gt;&lt;font color=&quot;#cccccc&quot;&gt;%c4Description%&lt;/font&gt;&lt;/div&gt;" id="3">
                    <mxCell style="html=1;fontSize=11;dashed=0;whitespace=wrap;fillColor=#083F75;strokeColor=#06315C;fontColor=#ffffff;shape=mxgraph.c4.person2;align=center;metaEdit=1;points=[[0.5,0,0],[1,0.5,0],[1,0.75,0],[0.75,1,0],[0.5,1,0],[0.25,1,0],[0,0.75,0],[0,0.5,0]];resizable=0;rounded=0;" parent="1" vertex="1">
                        <mxGeometry x="30" y="230" width="200" height="180" as="geometry"/>
                    </mxCell>
                </object>
                <mxCell id="6" style="edgeStyle=none;html=1;entryX=0;entryY=0.5;entryDx=0;entryDy=0;entryPerimeter=0;dashed=1;rounded=0;" parent="1" source="4" target="5" edge="1">
                    <mxGeometry relative="1" as="geometry"/>
                </mxCell>
                <mxCell id="7" value="Recupera e envia&lt;br&gt;informações&lt;br style=&quot;font-size: 13px&quot;&gt;através de &lt;br&gt;processo batch" style="edgeLabel;html=1;align=center;verticalAlign=middle;resizable=0;points=[];fontSize=13;rounded=0;" parent="6" vertex="1" connectable="0">
                    <mxGeometry x="-0.2125" relative="1" as="geometry">
                        <mxPoint x="14" y="-17" as="offset"/>
                    </mxGeometry>
                </mxCell>
                <mxCell id="9" style="edgeStyle=none;html=1;entryX=0.5;entryY=1;entryDx=0;entryDy=0;entryPerimeter=0;dashed=1;rounded=0;" parent="1" source="4" target="3" edge="1">
                    <mxGeometry relative="1" as="geometry">
                        <Array as="points">
                            <mxPoint x="520" y="540"/>
                            <mxPoint x="130" y="540"/>
                        </Array>
                    </mxGeometry>
                </mxCell>
                <mxCell id="10" value="Realiza ações de cobrança com propostas de renegociação&lt;br&gt;&lt;div&gt;Envia com informações para pagamentos de acordos já efetivados&lt;/div&gt;&lt;div&gt;(E-mail, SMS, Push, Whatsapp)&lt;/div&gt;" style="edgeLabel;html=1;align=left;verticalAlign=middle;resizable=0;points=[];fontSize=13;rounded=0;" parent="9" vertex="1" connectable="0">
                    <mxGeometry x="0.08" y="-4" relative="1" as="geometry">
                        <mxPoint x="-159" y="34" as="offset"/>
                    </mxGeometry>
                </mxCell>
                <mxCell id="14" style="edgeStyle=none;html=1;entryX=0;entryY=0.5;entryDx=0;entryDy=0;entryPerimeter=0;dashed=1;fontSize=13;rounded=0;" parent="1" source="4" target="13" edge="1">
                    <mxGeometry relative="1" as="geometry"/>
                </mxCell>
                <object placeholders="1" c4Name="Sistema de Negociação" c4Type="Sistema Monolítico" c4Description="Sistema que engloba multiplas responsabilidades" label="&lt;font style=&quot;font-size: 16px&quot;&gt;&lt;b&gt;%c4Name%&lt;/b&gt;&lt;/font&gt;&lt;div&gt;[%c4Type%]&lt;/div&gt;&lt;br&gt;&lt;div&gt;&lt;font style=&quot;font-size: 11px&quot;&gt;&lt;font color=&quot;#cccccc&quot;&gt;%c4Description%&lt;/font&gt;&lt;/div&gt;" id="4">
                    <mxCell style="rounded=0;whiteSpace=wrap;html=1;labelBackgroundColor=none;fillColor=#1061B0;fontColor=#ffffff;align=center;arcSize=10;strokeColor=#0D5091;metaEdit=1;resizable=0;points=[[0.25,0,0],[0.5,0,0],[0.75,0,0],[1,0.25,0],[1,0.5,0],[1,0.75,0],[0.75,1,0],[0.5,1,0],[0.25,1,0],[0,0.75,0],[0,0.5,0],[0,0.25,0]];" parent="1" vertex="1">
                        <mxGeometry x="400" y="290" width="240" height="120" as="geometry"/>
                    </mxCell>
                </object>
                <mxCell id="17" style="edgeStyle=none;html=1;entryX=1.011;entryY=0.399;entryDx=0;entryDy=0;entryPerimeter=0;dashed=1;fontSize=13;rounded=0;" parent="1" source="5" target="4" edge="1">
                    <mxGeometry relative="1" as="geometry"/>
                </mxCell>
                <object placeholders="1" c4Name="Sistema Corporativo" c4Type="Sistema Externo" c4Description="Sistema da instituição que provê informações sobre inadimplentes" label="&lt;font style=&quot;font-size: 16px&quot;&gt;&lt;b&gt;%c4Name%&lt;/b&gt;&lt;/font&gt;&lt;div&gt;[%c4Type%]&lt;/div&gt;&lt;br&gt;&lt;div&gt;&lt;font style=&quot;font-size: 11px&quot;&gt;&lt;font color=&quot;#cccccc&quot;&gt;%c4Description%&lt;/font&gt;&lt;/div&gt;" id="5">
                    <mxCell style="rounded=0;whiteSpace=wrap;html=1;labelBackgroundColor=none;fillColor=#8C8496;fontColor=#ffffff;align=center;arcSize=10;strokeColor=#736782;metaEdit=1;resizable=0;points=[[0.25,0,0],[0.5,0,0],[0.75,0,0],[1,0.25,0],[1,0.5,0],[1,0.75,0],[0.75,1,0],[0.5,1,0],[0.25,1,0],[0,0.75,0],[0,0.5,0],[0,0.25,0]];" parent="1" vertex="1">
                        <mxGeometry x="810" y="120" width="240" height="120" as="geometry"/>
                    </mxCell>
                </object>
                <mxCell id="12" value="&lt;font style=&quot;font-size: 13px&quot;&gt;Realiza simulações de pagamento, agrupamento de dívidas,&lt;br&gt;efetivação de acordos, geração de boletos etc.&lt;/font&gt;" style="edgeLabel;html=1;align=left;verticalAlign=middle;resizable=0;points=[];rounded=0;" parent="1" vertex="1" connectable="0">
                    <mxGeometry x="150.0017647058819" y="190" as="geometry"/>
                </mxCell>
                <mxCell id="18" style="edgeStyle=none;html=1;entryX=1.011;entryY=0.879;entryDx=0;entryDy=0;entryPerimeter=0;dashed=1;fontSize=13;rounded=0;" parent="1" source="13" target="4" edge="1">
                    <mxGeometry relative="1" as="geometry"/>
                </mxCell>
                <object placeholders="1" c4Name="Serasa, SPC, etc." c4Type="Bureaus de Crédito" c4Description="Sistemas externos de cadastro de inadimplentes" label="&lt;font style=&quot;font-size: 16px&quot;&gt;&lt;b&gt;%c4Name%&lt;/b&gt;&lt;/font&gt;&lt;div&gt;[%c4Type%]&lt;/div&gt;&lt;br&gt;&lt;div&gt;&lt;font style=&quot;font-size: 11px&quot;&gt;&lt;font color=&quot;#cccccc&quot;&gt;%c4Description%&lt;/font&gt;&lt;/div&gt;" id="13">
                    <mxCell style="rounded=0;whiteSpace=wrap;html=1;labelBackgroundColor=none;fillColor=#8C8496;fontColor=#ffffff;align=center;arcSize=10;strokeColor=#736782;metaEdit=1;resizable=0;points=[[0.25,0,0],[0.5,0,0],[0.75,0,0],[1,0.25,0],[1,0.5,0],[1,0.75,0],[0.75,1,0],[0.5,1,0],[0.25,1,0],[0,0.75,0],[0,0.5,0],[0,0.25,0]];" parent="1" vertex="1">
                        <mxGeometry x="810" y="460" width="240" height="120" as="geometry"/>
                    </mxCell>
                </object>
                <mxCell id="16" value="Recupera e envia&lt;br&gt;informações sobreNegativação&lt;br style=&quot;font-size: 13px&quot;&gt;através de&amp;nbsp;processo batch" style="edgeLabel;html=1;align=center;verticalAlign=middle;resizable=0;points=[];fontSize=13;rounded=0;" parent="1" vertex="1" connectable="0">
                    <mxGeometry x="780.003472726034" y="149.99761943646268" as="geometry">
                        <mxPoint x="-8" y="246" as="offset"/>
                    </mxGeometry>
                </mxCell>
                <mxCell id="19" value="&lt;h2&gt;&lt;b&gt;Contexto&amp;nbsp; Existente&lt;/b&gt;&lt;/h2&gt;" style="text;html=1;align=center;verticalAlign=middle;resizable=0;points=[];autosize=1;fillColor=default;gradientColor=none;" parent="1" vertex="1">
                    <mxGeometry width="180" height="50" as="geometry"/>
                </mxCell>
            </root>
        </mxGraphModel>
    </diagram>
    <diagram id="ZpD4vXsc4CfM9P1Jp46g" name="Proposed Context">
        <mxGraphModel dx="1620" dy="798" grid="1" gridSize="10" guides="1" tooltips="1" connect="1" arrows="1" fold="1" page="1" pageScale="1" pageWidth="1100" pageHeight="850" math="0" shadow="0">
            <root>
                <mxCell id="PGW7bnYjufuI6CpIWeMU-0"/>
                <mxCell id="PGW7bnYjufuI6CpIWeMU-1" parent="PGW7bnYjufuI6CpIWeMU-0"/>
                <mxCell id="natTUzhHQtPpCItLD6rM-0" style="edgeStyle=none;html=1;dashed=1;rounded=0;" parent="PGW7bnYjufuI6CpIWeMU-1" source="natTUzhHQtPpCItLD6rM-1" target="natTUzhHQtPpCItLD6rM-5" edge="1">
                    <mxGeometry relative="1" as="geometry">
                        <mxPoint x="510" y="240" as="targetPoint"/>
                        <Array as="points">
                            <mxPoint x="130" y="140"/>
                            <mxPoint x="550" y="140"/>
                        </Array>
                    </mxGeometry>
                </mxCell>
                <object placeholders="1" c4Name="Cliente" c4Type="Person" c4Description="Cliente do sistema de negociação" label="&lt;font style=&quot;font-size: 16px&quot;&gt;&lt;b&gt;%c4Name%&lt;/b&gt;&lt;/font&gt;&lt;div&gt;[%c4Type%]&lt;/div&gt;&lt;br&gt;&lt;div&gt;&lt;font style=&quot;font-size: 11px&quot;&gt;&lt;font color=&quot;#cccccc&quot;&gt;%c4Description%&lt;/font&gt;&lt;/div&gt;" id="natTUzhHQtPpCItLD6rM-1">
                    <mxCell style="html=1;fontSize=11;dashed=0;whitespace=wrap;fillColor=#083F75;strokeColor=#06315C;fontColor=#ffffff;shape=mxgraph.c4.person2;align=center;metaEdit=1;points=[[0.5,0,0],[1,0.5,0],[1,0.75,0],[0.75,1,0],[0.5,1,0],[0.25,1,0],[0,0.75,0],[0,0.5,0]];resizable=0;rounded=0;" parent="PGW7bnYjufuI6CpIWeMU-1" vertex="1">
                        <mxGeometry x="30" y="335" width="200" height="180" as="geometry"/>
                    </mxCell>
                </object>
                <mxCell id="natTUzhHQtPpCItLD6rM-2" style="edgeStyle=none;html=1;entryX=0;entryY=0.5;entryDx=0;entryDy=0;entryPerimeter=0;dashed=1;" parent="PGW7bnYjufuI6CpIWeMU-1" source="natTUzhHQtPpCItLD6rM-5" target="natTUzhHQtPpCItLD6rM-14" edge="1">
                    <mxGeometry relative="1" as="geometry"/>
                </mxCell>
                <mxCell id="natTUzhHQtPpCItLD6rM-3" style="edgeStyle=none;html=1;entryX=-0.017;entryY=0.325;entryDx=0;entryDy=0;entryPerimeter=0;dashed=1;" parent="PGW7bnYjufuI6CpIWeMU-1" source="natTUzhHQtPpCItLD6rM-5" target="natTUzhHQtPpCItLD6rM-9" edge="1">
                    <mxGeometry relative="1" as="geometry"/>
                </mxCell>
                <mxCell id="natTUzhHQtPpCItLD6rM-4" style="edgeStyle=none;html=1;entryX=0.5;entryY=0;entryDx=0;entryDy=0;entryPerimeter=0;dashed=1;" parent="PGW7bnYjufuI6CpIWeMU-1" source="natTUzhHQtPpCItLD6rM-5" target="natTUzhHQtPpCItLD6rM-16" edge="1">
                    <mxGeometry relative="1" as="geometry"/>
                </mxCell>
                <mxCell id="1NY-1CdSYFkd87PDYU1o-0" style="edgeStyle=none;html=1;entryX=0.446;entryY=1.017;entryDx=0;entryDy=0;entryPerimeter=0;dashed=1;fontSize=13;strokeColor=#FFFFFF;" parent="PGW7bnYjufuI6CpIWeMU-1" source="natTUzhHQtPpCItLD6rM-5" target="nlZPySFdz316u3gAigLN-0" edge="1">
                    <mxGeometry relative="1" as="geometry"/>
                </mxCell>
                <object placeholders="1" c4Name="Sistema de Negociação" c4Type="Micro services, Micro Front-ends" c4Description="Aplicação com responsabilidades distribuidas" label="&lt;font style=&quot;font-size: 16px&quot;&gt;&lt;b&gt;%c4Name%&lt;/b&gt;&lt;/font&gt;&lt;div&gt;[%c4Type%]&lt;/div&gt;&lt;br&gt;&lt;div&gt;&lt;font style=&quot;font-size: 11px&quot;&gt;&lt;font color=&quot;#cccccc&quot;&gt;%c4Description%&lt;/font&gt;&lt;/div&gt;" id="natTUzhHQtPpCItLD6rM-5">
                    <mxCell style="rounded=0;whiteSpace=wrap;html=1;labelBackgroundColor=none;fillColor=#1061B0;fontColor=#ffffff;align=center;arcSize=10;strokeColor=#0D5091;metaEdit=1;resizable=0;points=[[0.25,0,0],[0.5,0,0],[0.75,0,0],[1,0.25,0],[1,0.5,0],[1,0.75,0],[0.75,1,0],[0.5,1,0],[0.25,1,0],[0,0.75,0],[0,0.5,0],[0,0.25,0]];" parent="PGW7bnYjufuI6CpIWeMU-1" vertex="1">
                        <mxGeometry x="430" y="365" width="240" height="120" as="geometry"/>
                    </mxCell>
                </object>
                <mxCell id="natTUzhHQtPpCItLD6rM-6" style="edgeStyle=none;html=1;entryX=0.5;entryY=0;entryDx=0;entryDy=0;entryPerimeter=0;dashed=1;" parent="PGW7bnYjufuI6CpIWeMU-1" source="natTUzhHQtPpCItLD6rM-7" target="natTUzhHQtPpCItLD6rM-14" edge="1">
                    <mxGeometry relative="1" as="geometry"/>
                </mxCell>
                <object placeholders="1" c4Name="Sistema Corporativo" c4Type="Sistema Externo" c4Description="Sistema da instituição que provê informações sobre inadimplentes" label="&lt;font style=&quot;font-size: 16px&quot;&gt;&lt;b&gt;%c4Name%&lt;/b&gt;&lt;/font&gt;&lt;div&gt;[%c4Type%]&lt;/div&gt;&lt;br&gt;&lt;div&gt;&lt;font style=&quot;font-size: 11px&quot;&gt;&lt;font color=&quot;#cccccc&quot;&gt;%c4Description%&lt;/font&gt;&lt;/div&gt;" id="natTUzhHQtPpCItLD6rM-7">
                    <mxCell style="rounded=0;whiteSpace=wrap;html=1;labelBackgroundColor=none;fillColor=#8C8496;fontColor=#ffffff;align=center;arcSize=10;strokeColor=#736782;metaEdit=1;resizable=0;points=[[0.25,0,0],[0.5,0,0],[0.75,0,0],[1,0.25,0],[1,0.5,0],[1,0.75,0],[0.75,1,0],[0.5,1,0],[0.25,1,0],[0,0.75,0],[0,0.5,0],[0,0.25,0]];" parent="PGW7bnYjufuI6CpIWeMU-1" vertex="1">
                        <mxGeometry x="820" y="90" width="240" height="120" as="geometry"/>
                    </mxCell>
                </object>
                <mxCell id="natTUzhHQtPpCItLD6rM-8" value="&lt;font style=&quot;font-size: 13px&quot;&gt;Realiza simulações de pagamento, agrupamento de dívidas,&lt;br&gt;efetivação de acordos, geração de boletos etc.&lt;/font&gt;" style="edgeLabel;html=1;align=left;verticalAlign=middle;resizable=0;points=[];rounded=0;" parent="PGW7bnYjufuI6CpIWeMU-1" vertex="1" connectable="0">
                    <mxGeometry x="150.0017647058819" y="170" as="geometry"/>
                </mxCell>
                <object placeholders="1" c4Name="Serasa, SPC, etc." c4Type="Bureaus de Crédito" c4Description="Sistemas externos de cadastro de inadimplentes" label="&lt;font style=&quot;font-size: 16px&quot;&gt;&lt;b&gt;%c4Name%&lt;/b&gt;&lt;/font&gt;&lt;div&gt;[%c4Type%]&lt;/div&gt;&lt;br&gt;&lt;div&gt;&lt;font style=&quot;font-size: 11px&quot;&gt;&lt;font color=&quot;#cccccc&quot;&gt;%c4Description%&lt;/font&gt;&lt;/div&gt;" id="natTUzhHQtPpCItLD6rM-9">
                    <mxCell style="rounded=0;whiteSpace=wrap;html=1;labelBackgroundColor=none;fillColor=#8C8496;fontColor=#ffffff;align=center;arcSize=10;strokeColor=#736782;metaEdit=1;resizable=0;points=[[0.25,0,0],[0.5,0,0],[0.75,0,0],[1,0.25,0],[1,0.5,0],[1,0.75,0],[0.75,1,0],[0.5,1,0],[0.25,1,0],[0,0.75,0],[0,0.5,0],[0,0.25,0]];" parent="PGW7bnYjufuI6CpIWeMU-1" vertex="1">
                        <mxGeometry x="820" y="630" width="240" height="120" as="geometry"/>
                    </mxCell>
                </object>
                <mxCell id="natTUzhHQtPpCItLD6rM-11" value="&lt;h2&gt;&lt;b&gt;Contexto&amp;nbsp; Proposto&lt;/b&gt;&lt;/h2&gt;" style="text;html=1;align=center;verticalAlign=middle;resizable=0;points=[];autosize=1;fillColor=default;gradientColor=none;" parent="PGW7bnYjufuI6CpIWeMU-1" vertex="1">
                    <mxGeometry width="180" height="50" as="geometry"/>
                </mxCell>
                <mxCell id="natTUzhHQtPpCItLD6rM-12" style="edgeStyle=none;html=1;entryX=1;entryY=0.25;entryDx=0;entryDy=0;entryPerimeter=0;exitX=0;exitY=0.25;exitDx=0;exitDy=0;exitPerimeter=0;dashed=1;" parent="PGW7bnYjufuI6CpIWeMU-1" source="natTUzhHQtPpCItLD6rM-14" target="natTUzhHQtPpCItLD6rM-5" edge="1">
                    <mxGeometry relative="1" as="geometry"/>
                </mxCell>
                <mxCell id="natTUzhHQtPpCItLD6rM-13" style="edgeStyle=none;html=1;entryX=0.342;entryY=1.025;entryDx=0;entryDy=0;entryPerimeter=0;exitX=0.338;exitY=-0.008;exitDx=0;exitDy=0;exitPerimeter=0;dashed=1;" parent="PGW7bnYjufuI6CpIWeMU-1" source="natTUzhHQtPpCItLD6rM-14" target="natTUzhHQtPpCItLD6rM-7" edge="1">
                    <mxGeometry relative="1" as="geometry">
                        <mxPoint x="902" y="340" as="sourcePoint"/>
                    </mxGeometry>
                </mxCell>
                <object placeholders="1" c4Name="Message Broker" c4Type="Sistema Externo" c4Description="Troca informações de forma assíncrona Pub/Sub" label="&lt;font style=&quot;font-size: 16px&quot;&gt;&lt;b&gt;%c4Name%&lt;/b&gt;&lt;/font&gt;&lt;div&gt;[%c4Type%]&lt;/div&gt;&lt;br&gt;&lt;div&gt;&lt;font style=&quot;font-size: 11px&quot;&gt;&lt;font color=&quot;#cccccc&quot;&gt;%c4Description%&lt;/font&gt;&lt;/div&gt;" id="natTUzhHQtPpCItLD6rM-14">
                    <mxCell style="rounded=0;whiteSpace=wrap;html=1;labelBackgroundColor=none;fillColor=#8C8496;fontColor=#ffffff;align=center;arcSize=10;strokeColor=#736782;metaEdit=1;resizable=0;points=[[0.25,0,0],[0.5,0,0],[0.75,0,0],[1,0.25,0],[1,0.5,0],[1,0.75,0],[0.75,1,0],[0.5,1,0],[0.25,1,0],[0,0.75,0],[0,0.5,0],[0,0.25,0]];" parent="PGW7bnYjufuI6CpIWeMU-1" vertex="1">
                        <mxGeometry x="850" y="365" width="240" height="120" as="geometry"/>
                    </mxCell>
                </object>
                <mxCell id="natTUzhHQtPpCItLD6rM-15" style="edgeStyle=none;html=1;dashed=1;entryX=0.5;entryY=1;entryDx=0;entryDy=0;entryPerimeter=0;" parent="PGW7bnYjufuI6CpIWeMU-1" source="natTUzhHQtPpCItLD6rM-16" target="natTUzhHQtPpCItLD6rM-1" edge="1">
                    <mxGeometry relative="1" as="geometry">
                        <Array as="points">
                            <mxPoint x="130" y="690"/>
                        </Array>
                    </mxGeometry>
                </mxCell>
                <object placeholders="1" c4Name="Serviços de Comunicação" c4Type="Sistema Externo" c4Description="Serviços responsáveis pelo envio de e-mail, SMS, Whatsapp, Push etc." label="&lt;font style=&quot;font-size: 16px&quot;&gt;&lt;b&gt;%c4Name%&lt;/b&gt;&lt;/font&gt;&lt;div&gt;[%c4Type%]&lt;/div&gt;&lt;br&gt;&lt;div&gt;&lt;font style=&quot;font-size: 11px&quot;&gt;&lt;font color=&quot;#cccccc&quot;&gt;%c4Description%&lt;/font&gt;&lt;/div&gt;" id="natTUzhHQtPpCItLD6rM-16">
                    <mxCell style="rounded=0;whiteSpace=wrap;html=1;labelBackgroundColor=none;fillColor=#8C8496;fontColor=#ffffff;align=center;arcSize=10;strokeColor=#736782;metaEdit=1;resizable=0;points=[[0.25,0,0],[0.5,0,0],[0.75,0,0],[1,0.25,0],[1,0.5,0],[1,0.75,0],[0.75,1,0],[0.5,1,0],[0.25,1,0],[0,0.75,0],[0,0.5,0],[0,0.25,0]];" parent="PGW7bnYjufuI6CpIWeMU-1" vertex="1">
                        <mxGeometry x="430" y="630" width="240" height="120" as="geometry"/>
                    </mxCell>
                </object>
                <mxCell id="natTUzhHQtPpCItLD6rM-17" value="Recupera e envia&lt;br&gt;informações sobre Negativação&lt;br style=&quot;font-size: 13px&quot;&gt;através de API" style="edgeLabel;html=1;align=center;verticalAlign=middle;resizable=0;points=[];fontSize=13;rounded=0;" parent="PGW7bnYjufuI6CpIWeMU-1" vertex="1" connectable="0">
                    <mxGeometry x="730.003472726034" y="319.9976194364627" as="geometry">
                        <mxPoint x="-8" y="246" as="offset"/>
                    </mxGeometry>
                </mxCell>
                <mxCell id="natTUzhHQtPpCItLD6rM-18" value="Realiza ações de cobrança com propostas de renegociação&lt;br&gt;&lt;div&gt;Envia com informações para pagamentos de acordos já efetivados&lt;/div&gt;&lt;div&gt;(E-mail, SMS, Push, Whatsapp)&lt;/div&gt;" style="edgeLabel;html=1;align=left;verticalAlign=middle;resizable=0;points=[];fontSize=13;rounded=0;" parent="PGW7bnYjufuI6CpIWeMU-1" vertex="1" connectable="0">
                    <mxGeometry x="150.00222222222217" y="570" as="geometry"/>
                </mxCell>
                <object placeholders="1" c4Name="Autenticação" c4Type="Sistema Externo" c4Description="Sistema de autenticaçãode usuários" label="&lt;font style=&quot;font-size: 16px&quot;&gt;&lt;b&gt;%c4Name%&lt;/b&gt;&lt;/font&gt;&lt;div&gt;[%c4Type%]&lt;/div&gt;&lt;br&gt;&lt;div&gt;&lt;font style=&quot;font-size: 11px&quot;&gt;&lt;font color=&quot;#cccccc&quot;&gt;%c4Description%&lt;/font&gt;&lt;/div&gt;" id="nlZPySFdz316u3gAigLN-0">
                    <mxCell style="rounded=0;whiteSpace=wrap;html=1;labelBackgroundColor=none;fillColor=#8C8496;fontColor=#ffffff;align=center;arcSize=10;strokeColor=#736782;metaEdit=1;resizable=0;points=[[0.25,0,0],[0.5,0,0],[0.75,0,0],[1,0.25,0],[1,0.5,0],[1,0.75,0],[0.75,1,0],[0.5,1,0],[0.25,1,0],[0,0.75,0],[0,0.5,0],[0,0.25,0]];" parent="PGW7bnYjufuI6CpIWeMU-1" vertex="1">
                        <mxGeometry x="520" y="10" width="240" height="120" as="geometry"/>
                    </mxCell>
                </object>
                <mxCell id="natTUzhHQtPpCItLD6rM-10" value="Troca de informações entre&lt;br&gt;Micro Services e Sistema Corporativo via&lt;br&gt;eventos Pub/Sub" style="edgeLabel;html=1;align=center;verticalAlign=middle;resizable=0;points=[];fontSize=13;rounded=0;" parent="PGW7bnYjufuI6CpIWeMU-1" vertex="1" connectable="0">
                    <mxGeometry x="860.003472726034" y="39.997619436462685" as="geometry">
                        <mxPoint x="-8" y="246" as="offset"/>
                    </mxGeometry>
                </mxCell>
                <mxCell id="1NY-1CdSYFkd87PDYU1o-2" value="Autentica usuário" style="edgeLabel;html=1;align=center;verticalAlign=middle;resizable=0;points=[];fontSize=13;rounded=0;" parent="PGW7bnYjufuI6CpIWeMU-1" vertex="1" connectable="0">
                    <mxGeometry x="670.003472726034" y="-30.002380563537315" as="geometry">
                        <mxPoint x="-8" y="246" as="offset"/>
                    </mxGeometry>
                </mxCell>
                <mxCell id="1NY-1CdSYFkd87PDYU1o-3" value="Comunicação entre serviços" style="edgeLabel;html=1;align=center;verticalAlign=middle;resizable=0;points=[];fontSize=13;rounded=0;" parent="PGW7bnYjufuI6CpIWeMU-1" vertex="1" connectable="0">
                    <mxGeometry x="767.003472726034" y="161.99761943646268" as="geometry">
                        <mxPoint x="-8" y="246" as="offset"/>
                    </mxGeometry>
                </mxCell>
            </root>
        </mxGraphModel>
    </diagram>
    <diagram id="JevsBP07bURJs6eoUyDj" name="Proposed Container">
        <mxGraphModel dx="5029" dy="2680" grid="1" gridSize="10" guides="1" tooltips="1" connect="1" arrows="1" fold="1" page="0" pageScale="1" pageWidth="1100" pageHeight="850" background="#ffffff" math="0" shadow="0">
            <root>
                <mxCell id="72qJ5PjS1J1bwVYg0grg-0"/>
                <mxCell id="72qJ5PjS1J1bwVYg0grg-1" parent="72qJ5PjS1J1bwVYg0grg-0"/>
                <object placeholders="1" c4Name="Aplicação Web Renegociação" c4Type="ContainerScopeBoundary" c4Application="Container" label="&lt;font style=&quot;font-size: 16px&quot;&gt;&lt;b&gt;&lt;div style=&quot;text-align: left&quot;&gt;%c4Name%&lt;/div&gt;&lt;/b&gt;&lt;/font&gt;&lt;div style=&quot;text-align: left&quot;&gt;[%c4Application%]&lt;/div&gt;" id="72qJ5PjS1J1bwVYg0grg-28">
                    <mxCell style="rounded=1;fontSize=11;whiteSpace=wrap;html=1;dashed=1;arcSize=20;fillColor=#FFF;strokeColor=#E5E5E5;fontColor=#332D2D;labelBackgroundColor=none;align=left;verticalAlign=bottom;labelBorderColor=none;spacingTop=0;spacing=10;dashPattern=8 4;metaEdit=1;rotatable=0;perimeter=rectanglePerimeter;labelPadding=0;allowArrows=0;connectable=0;expand=0;recursiveResize=0;editable=1;pointerEvents=0;absoluteArcSize=1;points=[[0.25,0,0],[0.5,0,0],[0.75,0,0],[1,0.25,0],[1,0.5,0],[1,0.75,0],[0.75,1,0],[0.5,1,0],[0.25,1,0],[0,0.75,0],[0,0.5,0],[0,0.25,0]];" parent="72qJ5PjS1J1bwVYg0grg-1" vertex="1">
                        <mxGeometry x="300" y="10" width="1110" height="800" as="geometry"/>
                    </mxCell>
                </object>
                <mxCell id="72qJ5PjS1J1bwVYg0grg-39" style="edgeStyle=none;html=1;entryX=0;entryY=0.5;entryDx=0;entryDy=0;entryPerimeter=0;dashed=1;fontColor=#332D2D;strokeColor=#000000;exitX=1.012;exitY=0.537;exitDx=0;exitDy=0;exitPerimeter=0;" parent="72qJ5PjS1J1bwVYg0grg-1" source="72qJ5PjS1J1bwVYg0grg-3" target="72qJ5PjS1J1bwVYg0grg-38" edge="1">
                    <mxGeometry relative="1" as="geometry"/>
                </mxCell>
                <object placeholders="1" c4Name="Cliente" c4Type="Person" c4Description="Cliente do sistema de negociação" label="&lt;font style=&quot;font-size: 16px&quot;&gt;&lt;b&gt;%c4Name%&lt;/b&gt;&lt;/font&gt;&lt;div&gt;[%c4Type%]&lt;/div&gt;&lt;br&gt;&lt;div&gt;&lt;font style=&quot;font-size: 11px&quot;&gt;&lt;font color=&quot;#cccccc&quot;&gt;%c4Description%&lt;/font&gt;&lt;/div&gt;" id="72qJ5PjS1J1bwVYg0grg-3">
                    <mxCell style="html=1;fontSize=11;dashed=0;whitespace=wrap;fillColor=#083F75;strokeColor=#06315C;fontColor=#ffffff;shape=mxgraph.c4.person2;align=center;metaEdit=1;points=[[0.5,0,0],[1,0.5,0],[1,0.75,0],[0.75,1,0],[0.5,1,0],[0.25,1,0],[0,0.75,0],[0,0.5,0]];resizable=0;rounded=0;" parent="72qJ5PjS1J1bwVYg0grg-1" vertex="1">
                        <mxGeometry x="-80" y="325" width="200" height="180" as="geometry"/>
                    </mxCell>
                </object>
                <mxCell id="72qJ5PjS1J1bwVYg0grg-7" style="edgeStyle=none;html=1;entryX=0.5;entryY=0;entryDx=0;entryDy=0;entryPerimeter=0;dashed=1;" parent="72qJ5PjS1J1bwVYg0grg-1" source="72qJ5PjS1J1bwVYg0grg-8" target="72qJ5PjS1J1bwVYg0grg-23" edge="1">
                    <mxGeometry relative="1" as="geometry"/>
                </mxCell>
                <mxCell id="72qJ5PjS1J1bwVYg0grg-57" style="edgeStyle=none;html=1;entryX=0.591;entryY=0.017;entryDx=0;entryDy=0;entryPerimeter=0;dashed=1;fontSize=13;fontColor=#000000;strokeColor=#666666;" parent="72qJ5PjS1J1bwVYg0grg-1" source="72qJ5PjS1J1bwVYg0grg-8" target="72qJ5PjS1J1bwVYg0grg-23" edge="1">
                    <mxGeometry relative="1" as="geometry"/>
                </mxCell>
                <object placeholders="1" c4Name="Serasa, SPC, etc." c4Type="Bureaus de Crédito" c4Description="Sistemas externos de cadastro de inadimplentes" label="&lt;font style=&quot;font-size: 16px&quot;&gt;&lt;b&gt;%c4Name%&lt;/b&gt;&lt;/font&gt;&lt;div&gt;[%c4Type%]&lt;/div&gt;&lt;br&gt;&lt;div&gt;&lt;font style=&quot;font-size: 11px&quot;&gt;&lt;font color=&quot;#cccccc&quot;&gt;%c4Description%&lt;/font&gt;&lt;/div&gt;" id="72qJ5PjS1J1bwVYg0grg-10">
                    <mxCell style="rounded=0;whiteSpace=wrap;html=1;labelBackgroundColor=none;fillColor=#8C8496;fontColor=#ffffff;align=center;arcSize=10;strokeColor=#736782;metaEdit=1;resizable=0;points=[[0.25,0,0],[0.5,0,0],[0.75,0,0],[1,0.25,0],[1,0.5,0],[1,0.75,0],[0.75,1,0],[0.5,1,0],[0.25,1,0],[0,0.75,0],[0,0.5,0],[0,0.25,0]];" parent="72qJ5PjS1J1bwVYg0grg-1" vertex="1">
                        <mxGeometry x="1690" y="680" width="240" height="120" as="geometry"/>
                    </mxCell>
                </object>
                <mxCell id="72qJ5PjS1J1bwVYg0grg-55" style="edgeStyle=none;html=1;dashed=1;fontSize=13;fontColor=#000000;strokeColor=#666666;" parent="72qJ5PjS1J1bwVYg0grg-1" source="72qJ5PjS1J1bwVYg0grg-12" target="72qJ5PjS1J1bwVYg0grg-23" edge="1">
                    <mxGeometry relative="1" as="geometry"/>
                </mxCell>
                <object placeholders="1" c4Name="Acordo" c4Type="Micro Service, Micro Front-end" c4Description="Efetivação do acordo" label="&lt;font style=&quot;font-size: 16px&quot;&gt;&lt;b&gt;%c4Name%&lt;/b&gt;&lt;/font&gt;&lt;div&gt;[%c4Type%]&lt;/div&gt;&lt;br&gt;&lt;div&gt;&lt;font style=&quot;font-size: 11px&quot;&gt;&lt;font color=&quot;#cccccc&quot;&gt;%c4Description%&lt;/font&gt;&lt;/div&gt;" id="72qJ5PjS1J1bwVYg0grg-12">
                    <mxCell style="rounded=0;whiteSpace=wrap;html=1;labelBackgroundColor=none;fillColor=#1061B0;fontColor=#ffffff;align=center;arcSize=10;strokeColor=#0D5091;metaEdit=1;resizable=0;points=[[0.25,0,0],[0.5,0,0],[0.75,0,0],[1,0.25,0],[1,0.5,0],[1,0.75,0],[0.75,1,0],[0.5,1,0],[0.25,1,0],[0,0.75,0],[0,0.5,0],[0,0.25,0]];" parent="72qJ5PjS1J1bwVYg0grg-1" vertex="1">
                        <mxGeometry x="1020" y="70" width="240" height="120" as="geometry"/>
                    </mxCell>
                </object>
                <mxCell id="72qJ5PjS1J1bwVYg0grg-54" style="edgeStyle=none;html=1;entryX=0;entryY=0.25;entryDx=0;entryDy=0;entryPerimeter=0;dashed=1;fontSize=13;fontColor=#000000;strokeColor=#666666;exitX=1.01;exitY=0.902;exitDx=0;exitDy=0;exitPerimeter=0;" parent="72qJ5PjS1J1bwVYg0grg-1" source="72qJ5PjS1J1bwVYg0grg-13" target="72qJ5PjS1J1bwVYg0grg-23" edge="1">
                    <mxGeometry relative="1" as="geometry"/>
                </mxCell>
                <object placeholders="1" c4Name="Pagamento" c4Type="Micro Service" c4Description="Geração e baixa de pagamentos (bileto, Pix etc.)" label="&lt;font style=&quot;font-size: 16px&quot;&gt;&lt;b&gt;%c4Name%&lt;/b&gt;&lt;/font&gt;&lt;div&gt;[%c4Type%]&lt;/div&gt;&lt;br&gt;&lt;div&gt;&lt;font style=&quot;font-size: 11px&quot;&gt;&lt;font color=&quot;#cccccc&quot;&gt;%c4Description%&lt;/font&gt;&lt;/div&gt;" id="72qJ5PjS1J1bwVYg0grg-13">
                    <mxCell style="rounded=0;whiteSpace=wrap;html=1;labelBackgroundColor=none;fillColor=#1061B0;fontColor=#ffffff;align=center;arcSize=10;strokeColor=#0D5091;metaEdit=1;resizable=0;points=[[0.25,0,0],[0.5,0,0],[0.75,0,0],[1,0.25,0],[1,0.5,0],[1,0.75,0],[0.75,1,0],[0.5,1,0],[0.25,1,0],[0,0.75,0],[0,0.5,0],[0,0.25,0]];" parent="72qJ5PjS1J1bwVYg0grg-1" vertex="1">
                        <mxGeometry x="1020" y="263" width="240" height="120" as="geometry"/>
                    </mxCell>
                </object>
                <mxCell id="72qJ5PjS1J1bwVYg0grg-52" style="edgeStyle=none;html=1;entryX=-0.001;entryY=0.662;entryDx=0;entryDy=0;entryPerimeter=0;dashed=1;fontSize=13;fontColor=#000000;strokeColor=#666666;exitX=1.006;exitY=0.669;exitDx=0;exitDy=0;exitPerimeter=0;" parent="72qJ5PjS1J1bwVYg0grg-1" source="72qJ5PjS1J1bwVYg0grg-15" target="72qJ5PjS1J1bwVYg0grg-23" edge="1">
                    <mxGeometry relative="1" as="geometry"/>
                </mxCell>
                <object placeholders="1" c4Name="Cobrança" c4Type="Micro Service" c4Description="Ações de cobrança" label="&lt;font style=&quot;font-size: 16px&quot;&gt;&lt;b&gt;%c4Name%&lt;/b&gt;&lt;/font&gt;&lt;div&gt;[%c4Type%]&lt;/div&gt;&lt;br&gt;&lt;div&gt;&lt;font style=&quot;font-size: 11px&quot;&gt;&lt;font color=&quot;#cccccc&quot;&gt;%c4Description%&lt;/font&gt;&lt;/div&gt;" id="72qJ5PjS1J1bwVYg0grg-15">
                    <mxCell style="rounded=0;whiteSpace=wrap;html=1;labelBackgroundColor=none;fillColor=#1061B0;fontColor=#ffffff;align=center;arcSize=10;strokeColor=#0D5091;metaEdit=1;resizable=0;points=[[0.25,0,0],[0.5,0,0],[0.75,0,0],[1,0.25,0],[1,0.5,0],[1,0.75,0],[0.75,1,0],[0.5,1,0],[0.25,1,0],[0,0.75,0],[0,0.5,0],[0,0.25,0]];" parent="72qJ5PjS1J1bwVYg0grg-1" vertex="1">
                        <mxGeometry x="1020" y="457" width="240" height="120" as="geometry"/>
                    </mxCell>
                </object>
                <mxCell id="72qJ5PjS1J1bwVYg0grg-17" style="edgeStyle=none;html=1;entryX=0;entryY=0.5;entryDx=0;entryDy=0;entryPerimeter=0;dashed=1;" parent="72qJ5PjS1J1bwVYg0grg-1" source="72qJ5PjS1J1bwVYg0grg-18" target="72qJ5PjS1J1bwVYg0grg-10" edge="1">
                    <mxGeometry relative="1" as="geometry"/>
                </mxCell>
                <mxCell id="72qJ5PjS1J1bwVYg0grg-50" style="edgeStyle=none;html=1;dashed=1;fontSize=13;fontColor=#000000;strokeColor=#666666;entryX=0;entryY=0.5;entryDx=0;entryDy=0;entryPerimeter=0;" parent="72qJ5PjS1J1bwVYg0grg-1" source="72qJ5PjS1J1bwVYg0grg-18" target="72qJ5PjS1J1bwVYg0grg-10" edge="1">
                    <mxGeometry relative="1" as="geometry">
                        <mxPoint x="1780" y="730.0000000000002" as="targetPoint"/>
                    </mxGeometry>
                </mxCell>
                <mxCell id="72qJ5PjS1J1bwVYg0grg-53" style="edgeStyle=none;html=1;dashed=1;fontSize=13;fontColor=#000000;strokeColor=#666666;" parent="72qJ5PjS1J1bwVYg0grg-1" source="72qJ5PjS1J1bwVYg0grg-18" target="72qJ5PjS1J1bwVYg0grg-23" edge="1">
                    <mxGeometry relative="1" as="geometry"/>
                </mxCell>
                <object placeholders="1" c4Name="Negativação" c4Type="Micro Service" c4Description="Negativação e baixa junto a Bureaus" label="&lt;font style=&quot;font-size: 16px&quot;&gt;&lt;b&gt;%c4Name%&lt;/b&gt;&lt;/font&gt;&lt;div&gt;[%c4Type%]&lt;/div&gt;&lt;br&gt;&lt;div&gt;&lt;font style=&quot;font-size: 11px&quot;&gt;&lt;font color=&quot;#cccccc&quot;&gt;%c4Description%&lt;/font&gt;&lt;/div&gt;" id="72qJ5PjS1J1bwVYg0grg-18">
                    <mxCell style="rounded=0;whiteSpace=wrap;html=1;labelBackgroundColor=none;fillColor=#1061B0;fontColor=#ffffff;align=center;arcSize=10;strokeColor=#0D5091;metaEdit=1;resizable=0;points=[[0.25,0,0],[0.5,0,0],[0.75,0,0],[1,0.25,0],[1,0.5,0],[1,0.75,0],[0.75,1,0],[0.5,1,0],[0.25,1,0],[0,0.75,0],[0,0.5,0],[0,0.25,0]];" parent="72qJ5PjS1J1bwVYg0grg-1" vertex="1">
                        <mxGeometry x="1020" y="650" width="240" height="120" as="geometry"/>
                    </mxCell>
                </object>
                <mxCell id="72qJ5PjS1J1bwVYg0grg-59" style="edgeStyle=none;html=1;entryX=1;entryY=0.75;entryDx=0;entryDy=0;entryPerimeter=0;dashed=1;fontSize=13;fontColor=#000000;strokeColor=#666666;" parent="72qJ5PjS1J1bwVYg0grg-1" source="72qJ5PjS1J1bwVYg0grg-22" target="72qJ5PjS1J1bwVYg0grg-23" edge="1">
                    <mxGeometry relative="1" as="geometry"/>
                </mxCell>
                <mxCell id="zIdFriU_t5cd55eKOnUW-5" style="edgeStyle=none;html=1;entryX=0.5;entryY=0;entryDx=0;entryDy=0;entryPerimeter=0;strokeColor=#000066;dashed=1;" parent="72qJ5PjS1J1bwVYg0grg-1" source="72qJ5PjS1J1bwVYg0grg-22" target="72qJ5PjS1J1bwVYg0grg-3" edge="1">
                    <mxGeometry relative="1" as="geometry">
                        <Array as="points">
                            <mxPoint x="1990" y="-40"/>
                            <mxPoint x="20" y="-50"/>
                        </Array>
                    </mxGeometry>
                </mxCell>
                <object placeholders="1" c4Name="Serviços de Comunicação" c4Type="Abstração para serviços" c4Description="Serviços responsáveis pelo envio de e-mail, SMS, Whatsapp, Push etc." label="&lt;font style=&quot;font-size: 16px&quot;&gt;&lt;b&gt;%c4Name%&lt;/b&gt;&lt;/font&gt;&lt;div&gt;[%c4Type%]&lt;/div&gt;&lt;br&gt;&lt;div&gt;&lt;font style=&quot;font-size: 11px&quot;&gt;&lt;font color=&quot;#cccccc&quot;&gt;%c4Description%&lt;/font&gt;&lt;/div&gt;" id="72qJ5PjS1J1bwVYg0grg-22">
                    <mxCell style="rounded=0;whiteSpace=wrap;html=1;labelBackgroundColor=none;fillColor=#8C8496;fontColor=#ffffff;align=center;arcSize=10;strokeColor=#736782;metaEdit=1;resizable=0;points=[[0.25,0,0],[0.5,0,0],[0.75,0,0],[1,0.25,0],[1,0.5,0],[1,0.75,0],[0.75,1,0],[0.5,1,0],[0.25,1,0],[0,0.75,0],[0,0.5,0],[0,0.25,0]];" parent="72qJ5PjS1J1bwVYg0grg-1" vertex="1">
                        <mxGeometry x="1870" y="350" width="240" height="120" as="geometry"/>
                    </mxCell>
                </object>
                <object placeholders="1" c4Name="Message Broker" c4Type="Sistema Externo" c4Description="Troca informações de forma assíncrona Pub/Sub" label="&lt;font style=&quot;font-size: 16px&quot;&gt;&lt;b&gt;%c4Name%&lt;/b&gt;&lt;/font&gt;&lt;div&gt;[%c4Type%]&lt;/div&gt;&lt;br&gt;&lt;div&gt;&lt;font style=&quot;font-size: 11px&quot;&gt;&lt;font color=&quot;#cccccc&quot;&gt;%c4Description%&lt;/font&gt;&lt;/div&gt;" id="72qJ5PjS1J1bwVYg0grg-23">
                    <mxCell style="rounded=0;whiteSpace=wrap;html=1;labelBackgroundColor=none;fillColor=#1ba1e2;fontColor=#ffffff;align=center;arcSize=10;strokeColor=#006EAF;metaEdit=1;resizable=0;points=[[0.25,0,0],[0.5,0,0],[0.75,0,0],[1,0.25,0],[1,0.5,0],[1,0.75,0],[0.75,1,0],[0.5,1,0],[0.25,1,0],[0,0.75,0],[0,0.5,0],[0,0.25,0]];" parent="72qJ5PjS1J1bwVYg0grg-1" vertex="1">
                        <mxGeometry x="1460" y="350" width="240" height="120" as="geometry"/>
                    </mxCell>
                </object>
                <mxCell id="72qJ5PjS1J1bwVYg0grg-40" style="edgeStyle=none;html=1;entryX=-0.001;entryY=0.794;entryDx=0;entryDy=0;entryPerimeter=0;dashed=1;fontColor=#332D2D;strokeColor=#666666;" parent="72qJ5PjS1J1bwVYg0grg-1" source="72qJ5PjS1J1bwVYg0grg-38" target="72qJ5PjS1J1bwVYg0grg-6" edge="1">
                    <mxGeometry relative="1" as="geometry"/>
                </mxCell>
                <mxCell id="72qJ5PjS1J1bwVYg0grg-41" style="edgeStyle=none;html=1;dashed=1;fontColor=#332D2D;strokeColor=#666666;" parent="72qJ5PjS1J1bwVYg0grg-1" source="72qJ5PjS1J1bwVYg0grg-38" target="72qJ5PjS1J1bwVYg0grg-12" edge="1">
                    <mxGeometry relative="1" as="geometry"/>
                </mxCell>
                <mxCell id="J8kUmPswa5Kgc1_OdMdp-12" style="edgeStyle=none;html=1;entryX=0.5;entryY=0;entryDx=0;entryDy=0;entryPerimeter=0;fontSize=13;strokeColor=#000000;dashed=1;" parent="72qJ5PjS1J1bwVYg0grg-1" source="72qJ5PjS1J1bwVYg0grg-38" target="J8kUmPswa5Kgc1_OdMdp-10" edge="1">
                    <mxGeometry relative="1" as="geometry">
                        <Array as="points">
                            <mxPoint x="240" y="570"/>
                        </Array>
                    </mxGeometry>
                </mxCell>
                <object placeholders="1" c4Name="SPA" c4Type="Web Application" c4Description="Geração de oferta/proposta, agrupamento de dívidas, simulação" label="&lt;font style=&quot;font-size: 16px&quot;&gt;&lt;b&gt;%c4Name%&lt;/b&gt;&lt;/font&gt;&lt;div&gt;[%c4Type%]&lt;/div&gt;&lt;br&gt;&lt;div&gt;&lt;font style=&quot;font-size: 11px&quot;&gt;&lt;font color=&quot;#cccccc&quot;&gt;%c4Description%&lt;/font&gt;&lt;/div&gt;" id="72qJ5PjS1J1bwVYg0grg-38">
                    <mxCell style="rounded=0;whiteSpace=wrap;html=1;labelBackgroundColor=none;fillColor=#1061B0;fontColor=#ffffff;align=center;arcSize=10;strokeColor=#0D5091;metaEdit=1;resizable=0;points=[[0.25,0,0],[0.5,0,0],[0.75,0,0],[1,0.25,0],[1,0.5,0],[1,0.75,0],[0.75,1,0],[0.5,1,0],[0.25,1,0],[0,0.75,0],[0,0.5,0],[0,0.25,0]];" parent="72qJ5PjS1J1bwVYg0grg-1" vertex="1">
                        <mxGeometry x="350" y="360" width="240" height="120" as="geometry"/>
                    </mxCell>
                </object>
                <mxCell id="72qJ5PjS1J1bwVYg0grg-45" style="edgeStyle=none;html=1;entryX=0.5;entryY=0;entryDx=0;entryDy=0;entryPerimeter=0;dashed=1;fontColor=#000000;strokeColor=#666666;" parent="72qJ5PjS1J1bwVYg0grg-1" source="72qJ5PjS1J1bwVYg0grg-6" target="72qJ5PjS1J1bwVYg0grg-29" edge="1">
                    <mxGeometry relative="1" as="geometry"/>
                </mxCell>
                <object placeholders="1" c4Name="Oferta" c4Type="Micro Front-end" c4Description="Geração de oferta/proposta, agrupamento de dívidas, simulação" label="&lt;font style=&quot;font-size: 16px&quot;&gt;&lt;b&gt;%c4Name%&lt;/b&gt;&lt;/font&gt;&lt;div&gt;[%c4Type%]&lt;/div&gt;&lt;br&gt;&lt;div&gt;&lt;font style=&quot;font-size: 11px&quot;&gt;&lt;font color=&quot;#cccccc&quot;&gt;%c4Description%&lt;/font&gt;&lt;/div&gt;" id="72qJ5PjS1J1bwVYg0grg-6">
                    <mxCell style="rounded=0;whiteSpace=wrap;html=1;labelBackgroundColor=none;fillColor=#1061B0;fontColor=#ffffff;align=center;arcSize=10;strokeColor=#0D5091;metaEdit=1;resizable=0;points=[[0.25,0,0],[0.5,0,0],[0.75,0,0],[1,0.25,0],[1,0.5,0],[1,0.75,0],[0.75,1,0],[0.5,1,0],[0.25,1,0],[0,0.75,0],[0,0.5,0],[0,0.25,0]];" parent="72qJ5PjS1J1bwVYg0grg-1" vertex="1">
                        <mxGeometry x="680" y="130" width="240" height="120" as="geometry"/>
                    </mxCell>
                </object>
                <mxCell id="72qJ5PjS1J1bwVYg0grg-46" style="edgeStyle=none;html=1;entryX=0.5;entryY=0;entryDx=0;entryDy=0;entryPerimeter=0;dashed=1;fontColor=#000000;strokeColor=#666666;" parent="72qJ5PjS1J1bwVYg0grg-1" source="72qJ5PjS1J1bwVYg0grg-29" target="72qJ5PjS1J1bwVYg0grg-37" edge="1">
                    <mxGeometry relative="1" as="geometry"/>
                </mxCell>
                <mxCell id="72qJ5PjS1J1bwVYg0grg-63" style="edgeStyle=none;html=1;dashed=1;fontSize=13;fontColor=#000000;strokeColor=#666666;" parent="72qJ5PjS1J1bwVYg0grg-1" source="72qJ5PjS1J1bwVYg0grg-29" target="72qJ5PjS1J1bwVYg0grg-23" edge="1">
                    <mxGeometry relative="1" as="geometry">
                        <mxPoint x="1350" y="420" as="targetPoint"/>
                    </mxGeometry>
                </mxCell>
                <object placeholders="1" c4Name="Oferta" c4Type="BFF" c4Description="Geração de oferta/proposta, agrupamento de dívidas, simulação" label="&lt;font style=&quot;font-size: 16px&quot;&gt;&lt;b&gt;%c4Name%&lt;/b&gt;&lt;/font&gt;&lt;div&gt;[%c4Type%]&lt;/div&gt;&lt;br&gt;&lt;div&gt;&lt;font style=&quot;font-size: 11px&quot;&gt;&lt;font color=&quot;#cccccc&quot;&gt;%c4Description%&lt;/font&gt;&lt;/div&gt;" id="72qJ5PjS1J1bwVYg0grg-29">
                    <mxCell style="rounded=0;whiteSpace=wrap;html=1;labelBackgroundColor=none;fillColor=#1061B0;fontColor=#ffffff;align=center;arcSize=10;strokeColor=#0D5091;metaEdit=1;resizable=0;points=[[0.25,0,0],[0.5,0,0],[0.75,0,0],[1,0.25,0],[1,0.5,0],[1,0.75,0],[0.75,1,0],[0.5,1,0],[0.25,1,0],[0,0.75,0],[0,0.5,0],[0,0.25,0]];" parent="72qJ5PjS1J1bwVYg0grg-1" vertex="1">
                        <mxGeometry x="680" y="360" width="240" height="120" as="geometry"/>
                    </mxCell>
                </object>
                <object placeholders="1" c4Name="Oferta" c4Type="DB" c4Description="Geração de oferta/proposta, agrupamento de dívidas, simulação" label="&lt;font style=&quot;font-size: 16px&quot;&gt;&lt;b&gt;%c4Name%&lt;/b&gt;&lt;/font&gt;&lt;div&gt;[%c4Type%]&lt;/div&gt;&lt;br&gt;&lt;div&gt;&lt;font style=&quot;font-size: 11px&quot;&gt;&lt;font color=&quot;#cccccc&quot;&gt;%c4Description%&lt;/font&gt;&lt;/div&gt;" id="72qJ5PjS1J1bwVYg0grg-37">
                    <mxCell style="rounded=0;whiteSpace=wrap;html=1;labelBackgroundColor=none;fillColor=#1061B0;fontColor=#ffffff;align=center;arcSize=10;strokeColor=#0D5091;metaEdit=1;resizable=0;points=[[0.25,0,0],[0.5,0,0],[0.75,0,0],[1,0.25,0],[1,0.5,0],[1,0.75,0],[0.75,1,0],[0.5,1,0],[0.25,1,0],[0,0.75,0],[0,0.5,0],[0,0.25,0]];" parent="72qJ5PjS1J1bwVYg0grg-1" vertex="1">
                        <mxGeometry x="680" y="590" width="240" height="120" as="geometry"/>
                    </mxCell>
                </object>
                <mxCell id="72qJ5PjS1J1bwVYg0grg-47" value="&lt;font style=&quot;font-size: 13px&quot;&gt;Acessa a &lt;br&gt;Aplicação Web&lt;/font&gt;" style="text;html=1;align=center;verticalAlign=middle;resizable=0;points=[];autosize=1;strokeColor=none;fillColor=none;fontColor=#000000;labelBackgroundColor=#FFFFFF;" parent="72qJ5PjS1J1bwVYg0grg-1" vertex="1">
                    <mxGeometry x="170" y="383" width="100" height="30" as="geometry"/>
                </mxCell>
                <mxCell id="72qJ5PjS1J1bwVYg0grg-49" value="&lt;span style=&quot;font-size: 13px&quot;&gt;Recupera Ofertas,&lt;br&gt;Simulações&lt;/span&gt;" style="text;html=1;align=left;verticalAlign=middle;resizable=0;points=[];autosize=1;strokeColor=none;fillColor=none;fontColor=#000000;labelBackgroundColor=#FFFFFF;" parent="72qJ5PjS1J1bwVYg0grg-1" vertex="1">
                    <mxGeometry x="800" y="295" width="120" height="30" as="geometry"/>
                </mxCell>
                <mxCell id="72qJ5PjS1J1bwVYg0grg-61" value="&lt;span style=&quot;font-size: 13px&quot;&gt;Grava/Recupera &lt;br&gt;Informações&lt;/span&gt;" style="text;html=1;align=left;verticalAlign=middle;resizable=0;points=[];autosize=1;strokeColor=none;fillColor=none;fontColor=#000000;labelBackgroundColor=#FFFFFF;" parent="72qJ5PjS1J1bwVYg0grg-1" vertex="1">
                    <mxGeometry x="800" y="530" width="110" height="30" as="geometry"/>
                </mxCell>
                <mxCell id="72qJ5PjS1J1bwVYg0grg-62" value="&lt;span style=&quot;font-size: 13px&quot;&gt;UI para Ofertas,&lt;br&gt;Simulações, agrupamento&lt;br&gt;de dívidas&lt;br&gt;&lt;/span&gt;" style="text;html=1;align=left;verticalAlign=middle;resizable=0;points=[];autosize=1;strokeColor=none;fillColor=none;fontColor=#000000;labelBackgroundColor=#FFFFFF;" parent="72qJ5PjS1J1bwVYg0grg-1" vertex="1">
                    <mxGeometry x="451" y="250" width="170" height="50" as="geometry"/>
                </mxCell>
                <mxCell id="72qJ5PjS1J1bwVYg0grg-64" value="&lt;span style=&quot;font-size: 13px&quot;&gt;UI para Acordos&lt;br&gt;&lt;/span&gt;" style="text;html=1;align=left;verticalAlign=middle;resizable=0;points=[];autosize=1;strokeColor=none;fillColor=none;fontColor=#000000;labelBackgroundColor=#FFFFFF;" parent="72qJ5PjS1J1bwVYg0grg-1" vertex="1">
                    <mxGeometry x="960" y="200" width="110" height="20" as="geometry"/>
                </mxCell>
                <mxCell id="zIdFriU_t5cd55eKOnUW-0" value="&lt;span style=&quot;font-size: 13px&quot;&gt;Inclusão e remoção de negativação via API&lt;br&gt;&lt;/span&gt;" style="text;html=1;align=left;verticalAlign=middle;resizable=0;points=[];autosize=1;strokeColor=none;fillColor=none;fontColor=#000000;labelBackgroundColor=#FFFFFF;" parent="72qJ5PjS1J1bwVYg0grg-1" vertex="1">
                    <mxGeometry x="1370" y="700" width="260" height="20" as="geometry"/>
                </mxCell>
                <object placeholders="1" c4Name="Sistema Corporativo" c4Type="Sistema Externo" c4Description="Sistema da operação principal da instituição que provê informações sobre inadimplentes" label="&lt;font style=&quot;font-size: 16px&quot;&gt;&lt;b&gt;%c4Name%&lt;/b&gt;&lt;/font&gt;&lt;div&gt;[%c4Type%]&lt;/div&gt;&lt;br&gt;&lt;div&gt;&lt;font style=&quot;font-size: 11px&quot;&gt;&lt;font color=&quot;#cccccc&quot;&gt;%c4Description%&lt;/font&gt;&lt;/div&gt;" id="72qJ5PjS1J1bwVYg0grg-8">
                    <mxCell style="rounded=0;whiteSpace=wrap;html=1;labelBackgroundColor=none;fillColor=#8C8496;fontColor=#ffffff;align=center;arcSize=10;strokeColor=#736782;metaEdit=1;resizable=0;points=[[0.25,0,0],[0.5,0,0],[0.75,0,0],[1,0.25,0],[1,0.5,0],[1,0.75,0],[0.75,1,0],[0.5,1,0],[0.25,1,0],[0,0.75,0],[0,0.5,0],[0,0.25,0]];" parent="72qJ5PjS1J1bwVYg0grg-1" vertex="1">
                        <mxGeometry x="1690" y="20" width="240" height="120" as="geometry"/>
                    </mxCell>
                </object>
                <mxCell id="zIdFriU_t5cd55eKOnUW-7" value="&lt;font style=&quot;font-size: 13px&quot;&gt;Envia mensagens para o cliente&lt;/font&gt;" style="text;html=1;align=center;verticalAlign=middle;resizable=0;points=[];autosize=1;strokeColor=none;fillColor=none;fontColor=#000000;" parent="72qJ5PjS1J1bwVYg0grg-1" vertex="1">
                    <mxGeometry x="1990" y="275" width="200" height="20" as="geometry"/>
                </mxCell>
                <object placeholders="1" c4Name="Oferta" c4Type="SystemScopeBoundary" c4Application="MFE, BFF, DB" label="&lt;font style=&quot;font-size: 16px&quot;&gt;&lt;b&gt;&lt;div style=&quot;text-align: left&quot;&gt;%c4Name%&lt;/div&gt;&lt;/b&gt;&lt;/font&gt;&lt;div style=&quot;text-align: left&quot;&gt;[%c4Application%]&lt;/div&gt;" id="_PgnaLUBX-aJ5axsKSvn-1">
                    <mxCell style="rounded=1;fontSize=11;whiteSpace=wrap;html=1;dashed=1;arcSize=20;fillColor=none;strokeColor=#A6A6A6;fontColor=#333333;labelBackgroundColor=none;align=left;verticalAlign=bottom;labelBorderColor=none;spacingTop=0;spacing=10;dashPattern=8 4;metaEdit=1;rotatable=0;perimeter=rectanglePerimeter;noLabel=0;labelPadding=0;allowArrows=0;connectable=0;expand=0;recursiveResize=0;editable=1;pointerEvents=0;absoluteArcSize=1;points=[[0.25,0,0],[0.5,0,0],[0.75,0,0],[1,0.25,0],[1,0.5,0],[1,0.75,0],[0.75,1,0],[0.5,1,0],[0.25,1,0],[0,0.75,0],[0,0.5,0],[0,0.25,0]];shadow=0;glass=0;" parent="72qJ5PjS1J1bwVYg0grg-1" vertex="1">
                        <mxGeometry x="660" y="105" width="290" height="665" as="geometry"/>
                    </mxCell>
                </object>
                <mxCell id="J8kUmPswa5Kgc1_OdMdp-0" value="&lt;span style=&quot;font-size: 13px&quot;&gt;Eventos de inclusão e remoção de negativação&lt;br&gt;&lt;/span&gt;" style="text;html=1;align=left;verticalAlign=middle;resizable=0;points=[];autosize=1;strokeColor=none;fillColor=none;fontColor=#000000;labelBackgroundColor=#FFFFFF;" parent="72qJ5PjS1J1bwVYg0grg-1" vertex="1">
                    <mxGeometry x="1340" y="570" width="290" height="20" as="geometry"/>
                </mxCell>
                <mxCell id="J8kUmPswa5Kgc1_OdMdp-1" value="&lt;span style=&quot;font-size: 13px&quot;&gt;Eventos de cobrança&lt;br&gt;Suspensão de cobrança&lt;br&gt;&lt;/span&gt;" style="text;html=1;align=left;verticalAlign=middle;resizable=0;points=[];autosize=1;strokeColor=none;fillColor=none;fontColor=#000000;labelBackgroundColor=#FFFFFF;" parent="72qJ5PjS1J1bwVYg0grg-1" vertex="1">
                    <mxGeometry x="1270" y="457" width="160" height="30" as="geometry"/>
                </mxCell>
                <mxCell id="J8kUmPswa5Kgc1_OdMdp-5" value="&lt;span style=&quot;font-size: 13px&quot;&gt;Adição / exclusão de inadimplentes&lt;br&gt;&lt;/span&gt;" style="text;html=1;align=left;verticalAlign=middle;resizable=0;points=[];autosize=1;strokeColor=none;fillColor=none;fontColor=#000000;labelBackgroundColor=#FFFFFF;" parent="72qJ5PjS1J1bwVYg0grg-1" vertex="1">
                    <mxGeometry x="1697" y="230" width="220" height="20" as="geometry"/>
                </mxCell>
                <mxCell id="J8kUmPswa5Kgc1_OdMdp-6" value="&lt;span style=&quot;font-size: 13px&quot;&gt;Eventos de cobrança&lt;br&gt;&lt;/span&gt;" style="text;html=1;align=left;verticalAlign=middle;resizable=0;points=[];autosize=1;strokeColor=none;fillColor=none;fontColor=#000000;labelBackgroundColor=#FFFFFF;" parent="72qJ5PjS1J1bwVYg0grg-1" vertex="1">
                    <mxGeometry x="1725" y="437" width="140" height="20" as="geometry"/>
                </mxCell>
                <mxCell id="J8kUmPswa5Kgc1_OdMdp-7" value="&lt;span style=&quot;font-size: 13px&quot;&gt;Emissão / baixa de pagamentos&lt;br&gt;&lt;/span&gt;" style="text;html=1;align=left;verticalAlign=middle;resizable=0;points=[];autosize=1;strokeColor=none;fillColor=none;fontColor=#000000;labelBackgroundColor=#FFFFFF;" parent="72qJ5PjS1J1bwVYg0grg-1" vertex="1">
                    <mxGeometry x="1260" y="353" width="200" height="20" as="geometry"/>
                </mxCell>
                <mxCell id="J8kUmPswa5Kgc1_OdMdp-8" value="&lt;span style=&quot;font-size: 13px&quot;&gt;Geração de Oferta&lt;br&gt;&lt;/span&gt;" style="text;html=1;align=left;verticalAlign=middle;resizable=0;points=[];autosize=1;strokeColor=none;fillColor=none;fontColor=#000000;labelBackgroundColor=#FFFFFF;" parent="72qJ5PjS1J1bwVYg0grg-1" vertex="1">
                    <mxGeometry x="1060" y="400" width="120" height="20" as="geometry"/>
                </mxCell>
                <mxCell id="J8kUmPswa5Kgc1_OdMdp-9" value="&lt;span style=&quot;font-size: 13px&quot;&gt;Efetivação de acordo&lt;br&gt;&lt;/span&gt;" style="text;html=1;align=left;verticalAlign=middle;resizable=0;points=[];autosize=1;strokeColor=none;fillColor=none;fontColor=#000000;labelBackgroundColor=#FFFFFF;" parent="72qJ5PjS1J1bwVYg0grg-1" vertex="1">
                    <mxGeometry x="1340" y="243" width="140" height="20" as="geometry"/>
                </mxCell>
                <object placeholders="1" c4Name="Autenticação" c4Type="Sistema Externo" c4Description="Sistema de autenticaçãode usuários" label="&lt;font style=&quot;font-size: 16px&quot;&gt;&lt;b&gt;%c4Name%&lt;/b&gt;&lt;/font&gt;&lt;div&gt;[%c4Type%]&lt;/div&gt;&lt;br&gt;&lt;div&gt;&lt;font style=&quot;font-size: 11px&quot;&gt;&lt;font color=&quot;#cccccc&quot;&gt;%c4Description%&lt;/font&gt;&lt;/div&gt;" id="J8kUmPswa5Kgc1_OdMdp-10">
                    <mxCell style="rounded=0;whiteSpace=wrap;html=1;labelBackgroundColor=none;fillColor=#8C8496;fontColor=#ffffff;align=center;arcSize=10;strokeColor=#736782;metaEdit=1;resizable=0;points=[[0.25,0,0],[0.5,0,0],[0.75,0,0],[1,0.25,0],[1,0.5,0],[1,0.75,0],[0.75,1,0],[0.5,1,0],[0.25,1,0],[0,0.75,0],[0,0.5,0],[0,0.25,0]];" parent="72qJ5PjS1J1bwVYg0grg-1" vertex="1">
                        <mxGeometry y="650" width="240" height="120" as="geometry"/>
                    </mxCell>
                </object>
                <mxCell id="J8kUmPswa5Kgc1_OdMdp-13" value="&lt;span style=&quot;font-size: 13px&quot;&gt;Autentica usuário&lt;/span&gt;" style="text;html=1;align=center;verticalAlign=middle;resizable=0;points=[];autosize=1;strokeColor=none;fillColor=none;fontColor=#000000;labelBackgroundColor=#FFFFFF;" parent="72qJ5PjS1J1bwVYg0grg-1" vertex="1">
                    <mxGeometry x="250" y="565" width="120" height="20" as="geometry"/>
                </mxCell>
            </root>
        </mxGraphModel>
    </diagram>
    <diagram id="vk7wcygd5Zt2dsi3PIEX" name="Infra">
        <mxGraphModel dx="2369" dy="939" grid="0" gridSize="10" guides="1" tooltips="1" connect="1" arrows="1" fold="1" page="1" pageScale="1" pageWidth="1100" pageHeight="850" background="#ffffff" math="0" shadow="0">
            <root>
                <mxCell id="F4xuDANb7OEfPWtLHM5M-0"/>
                <mxCell id="F4xuDANb7OEfPWtLHM5M-1" parent="F4xuDANb7OEfPWtLHM5M-0"/>
                <mxCell id="7fNUElX4PFvuTNSdqhNt-0" value="AWS Cloud" style="points=[[0,0],[0.25,0],[0.5,0],[0.75,0],[1,0],[1,0.25],[1,0.5],[1,0.75],[1,1],[0.75,1],[0.5,1],[0.25,1],[0,1],[0,0.75],[0,0.5],[0,0.25]];outlineConnect=0;gradientColor=none;html=1;whiteSpace=wrap;fontSize=12;fontStyle=0;container=1;pointerEvents=0;collapsible=0;recursiveResize=0;shape=mxgraph.aws4.group;grIcon=mxgraph.aws4.group_aws_cloud_alt;strokeColor=#232F3E;fillColor=none;verticalAlign=top;align=left;spacingLeft=30;fontColor=#232F3E;dashed=0;" vertex="1" parent="F4xuDANb7OEfPWtLHM5M-1">
                    <mxGeometry x="134" y="30" width="1225" height="790" as="geometry"/>
                </mxCell>
                <mxCell id="7fNUElX4PFvuTNSdqhNt-2" value="VPC" style="points=[[0,0],[0.25,0],[0.5,0],[0.75,0],[1,0],[1,0.25],[1,0.5],[1,0.75],[1,1],[0.75,1],[0.5,1],[0.25,1],[0,1],[0,0.75],[0,0.5],[0,0.25]];outlineConnect=0;gradientColor=none;html=1;whiteSpace=wrap;fontSize=12;fontStyle=0;container=1;pointerEvents=0;collapsible=0;recursiveResize=0;shape=mxgraph.aws4.group;grIcon=mxgraph.aws4.group_vpc;strokeColor=#248814;fillColor=none;verticalAlign=top;align=left;spacingLeft=30;fontColor=#AAB7B8;dashed=0;" vertex="1" parent="7fNUElX4PFvuTNSdqhNt-0">
                    <mxGeometry x="256" y="117" width="934" height="523" as="geometry"/>
                </mxCell>
                <mxCell id="7fNUElX4PFvuTNSdqhNt-4" value="" style="outlineConnect=0;dashed=0;verticalLabelPosition=bottom;verticalAlign=top;align=center;html=1;shape=mxgraph.aws3.internet_gateway;fillColor=#F58534;gradientColor=none;" vertex="1" parent="7fNUElX4PFvuTNSdqhNt-2">
                    <mxGeometry x="-33" y="242" width="69" height="72" as="geometry"/>
                </mxCell>
                <mxCell id="7fNUElX4PFvuTNSdqhNt-7" value="Availability zone 1" style="sketch=0;outlineConnect=0;gradientColor=none;html=1;whiteSpace=wrap;fontSize=12;fontStyle=0;shape=mxgraph.aws4.group;grIcon=mxgraph.aws4.group_availability_zone;strokeColor=#545B64;fillColor=none;verticalAlign=top;align=left;spacingLeft=30;fontColor=#545B64;dashed=1;" vertex="1" parent="7fNUElX4PFvuTNSdqhNt-2">
                    <mxGeometry x="56" y="35" width="411" height="303" as="geometry"/>
                </mxCell>
                <mxCell id="7fNUElX4PFvuTNSdqhNt-9" value="Availability zone 2" style="sketch=0;outlineConnect=0;gradientColor=none;html=1;whiteSpace=wrap;fontSize=12;fontStyle=0;shape=mxgraph.aws4.group;grIcon=mxgraph.aws4.group_availability_zone;strokeColor=#545B64;fillColor=none;verticalAlign=top;align=left;spacingLeft=30;fontColor=#545B64;dashed=1;" vertex="1" parent="7fNUElX4PFvuTNSdqhNt-2">
                    <mxGeometry x="487" y="35" width="422" height="304" as="geometry"/>
                </mxCell>
                <mxCell id="7fNUElX4PFvuTNSdqhNt-28" value="EKS Node" style="outlineConnect=0;gradientColor=none;html=1;whiteSpace=wrap;fontSize=12;fontStyle=0;strokeColor=#879196;fillColor=none;verticalAlign=top;align=center;fontColor=#879196;dashed=1;spacingTop=3;" vertex="1" parent="7fNUElX4PFvuTNSdqhNt-2">
                    <mxGeometry x="78.45" y="90" width="358.55" height="198" as="geometry"/>
                </mxCell>
                <mxCell id="7fNUElX4PFvuTNSdqhNt-21" value="" style="outlineConnect=0;dashed=0;verticalLabelPosition=bottom;verticalAlign=top;align=center;html=1;shape=mxgraph.aws3.ec2_compute_container_2;fillColor=#F58534;gradientColor=none;fontColor=#000000;" vertex="1" parent="7fNUElX4PFvuTNSdqhNt-2">
                    <mxGeometry x="87.18" y="158.5" width="106.09" height="61" as="geometry"/>
                </mxCell>
                <mxCell id="7fNUElX4PFvuTNSdqhNt-29" value="" style="outlineConnect=0;dashed=0;verticalLabelPosition=bottom;verticalAlign=top;align=center;html=1;shape=mxgraph.aws3.ec2_compute_container_2;fillColor=#F58534;gradientColor=none;fontColor=#000000;" vertex="1" parent="7fNUElX4PFvuTNSdqhNt-2">
                    <mxGeometry x="204.18" y="158.5" width="106.09" height="61" as="geometry"/>
                </mxCell>
                <mxCell id="7fNUElX4PFvuTNSdqhNt-43" value="" style="outlineConnect=0;dashed=0;verticalLabelPosition=bottom;verticalAlign=top;align=center;html=1;shape=mxgraph.aws3.ec2_compute_container_2;fillColor=#F58534;gradientColor=none;fontColor=#000000;" vertex="1" parent="7fNUElX4PFvuTNSdqhNt-2">
                    <mxGeometry x="322.18" y="158.5" width="106.09" height="61" as="geometry"/>
                </mxCell>
                <mxCell id="7fNUElX4PFvuTNSdqhNt-45" value="EKS Node" style="outlineConnect=0;gradientColor=none;html=1;whiteSpace=wrap;fontSize=12;fontStyle=0;strokeColor=#879196;fillColor=none;verticalAlign=top;align=center;fontColor=#879196;dashed=1;spacingTop=3;" vertex="1" parent="7fNUElX4PFvuTNSdqhNt-2">
                    <mxGeometry x="518.72" y="90" width="358.55" height="198" as="geometry"/>
                </mxCell>
                <mxCell id="7fNUElX4PFvuTNSdqhNt-46" value="" style="outlineConnect=0;dashed=0;verticalLabelPosition=bottom;verticalAlign=top;align=center;html=1;shape=mxgraph.aws3.ec2_compute_container_2;fillColor=#F58534;gradientColor=none;fontColor=#000000;" vertex="1" parent="7fNUElX4PFvuTNSdqhNt-2">
                    <mxGeometry x="527.45" y="158.5" width="106.09" height="61" as="geometry"/>
                </mxCell>
                <mxCell id="7fNUElX4PFvuTNSdqhNt-47" value="" style="outlineConnect=0;dashed=0;verticalLabelPosition=bottom;verticalAlign=top;align=center;html=1;shape=mxgraph.aws3.ec2_compute_container_2;fillColor=#F58534;gradientColor=none;fontColor=#000000;" vertex="1" parent="7fNUElX4PFvuTNSdqhNt-2">
                    <mxGeometry x="644.45" y="158.5" width="106.09" height="61" as="geometry"/>
                </mxCell>
                <mxCell id="7fNUElX4PFvuTNSdqhNt-48" value="" style="outlineConnect=0;dashed=0;verticalLabelPosition=bottom;verticalAlign=top;align=center;html=1;shape=mxgraph.aws3.ec2_compute_container_2;fillColor=#F58534;gradientColor=none;fontColor=#000000;" vertex="1" parent="7fNUElX4PFvuTNSdqhNt-2">
                    <mxGeometry x="762.45" y="158.5" width="106.09" height="61" as="geometry"/>
                </mxCell>
                <mxCell id="7fNUElX4PFvuTNSdqhNt-51" value="PODs" style="text;html=1;align=center;verticalAlign=middle;resizable=0;points=[];autosize=1;strokeColor=none;fillColor=none;fontColor=#000000;" vertex="1" parent="7fNUElX4PFvuTNSdqhNt-2">
                    <mxGeometry x="87.18" y="224" width="42" height="18" as="geometry"/>
                </mxCell>
                <mxCell id="7fNUElX4PFvuTNSdqhNt-52" value="PODs" style="text;html=1;align=center;verticalAlign=middle;resizable=0;points=[];autosize=1;strokeColor=none;fillColor=none;fontColor=#000000;" vertex="1" parent="7fNUElX4PFvuTNSdqhNt-2">
                    <mxGeometry x="527.45" y="224" width="42" height="18" as="geometry"/>
                </mxCell>
                <mxCell id="7fNUElX4PFvuTNSdqhNt-8" value="&lt;font color=&quot;#000000&quot;&gt;API&lt;br&gt;Gateway&lt;/font&gt;" style="text;html=1;align=center;verticalAlign=middle;resizable=0;points=[];autosize=1;strokeColor=none;fillColor=#FFFFFF;" vertex="1" parent="7fNUElX4PFvuTNSdqhNt-0">
                    <mxGeometry x="228" y="438" width="57" height="32" as="geometry"/>
                </mxCell>
                <mxCell id="7fNUElX4PFvuTNSdqhNt-33" style="edgeStyle=none;html=1;entryX=0.5;entryY=0;entryDx=0;entryDy=0;fontColor=#000000;strokeColor=#000000;" edge="1" parent="7fNUElX4PFvuTNSdqhNt-0" source="7fNUElX4PFvuTNSdqhNt-5" target="7fNUElX4PFvuTNSdqhNt-28">
                    <mxGeometry relative="1" as="geometry">
                        <Array as="points">
                            <mxPoint x="514" y="47"/>
                        </Array>
                    </mxGeometry>
                </mxCell>
                <mxCell id="7fNUElX4PFvuTNSdqhNt-53" style="edgeStyle=none;html=1;fontColor=#000000;strokeColor=#000000;" edge="1" parent="7fNUElX4PFvuTNSdqhNt-0" source="7fNUElX4PFvuTNSdqhNt-5" target="7fNUElX4PFvuTNSdqhNt-45">
                    <mxGeometry relative="1" as="geometry">
                        <Array as="points">
                            <mxPoint x="954" y="47"/>
                        </Array>
                    </mxGeometry>
                </mxCell>
                <mxCell id="7fNUElX4PFvuTNSdqhNt-5" value="" style="sketch=0;points=[[0,0,0],[0.25,0,0],[0.5,0,0],[0.75,0,0],[1,0,0],[0,1,0],[0.25,1,0],[0.5,1,0],[0.75,1,0],[1,1,0],[0,0.25,0],[0,0.5,0],[0,0.75,0],[1,0.25,0],[1,0.5,0],[1,0.75,0]];outlineConnect=0;fontColor=#232F3E;gradientColor=#F78E04;gradientDirection=north;fillColor=#D05C17;strokeColor=#ffffff;dashed=0;verticalLabelPosition=bottom;verticalAlign=top;align=center;html=1;fontSize=12;fontStyle=0;aspect=fixed;shape=mxgraph.aws4.resourceIcon;resIcon=mxgraph.aws4.eks;" vertex="1" parent="7fNUElX4PFvuTNSdqhNt-0">
                    <mxGeometry x="684" y="8" width="78" height="78" as="geometry"/>
                </mxCell>
                <mxCell id="7fNUElX4PFvuTNSdqhNt-38" style="edgeStyle=none;html=1;fontColor=#000000;strokeColor=#000000;" edge="1" parent="7fNUElX4PFvuTNSdqhNt-0" source="7fNUElX4PFvuTNSdqhNt-34" target="7fNUElX4PFvuTNSdqhNt-4">
                    <mxGeometry relative="1" as="geometry"/>
                </mxCell>
                <mxCell id="7fNUElX4PFvuTNSdqhNt-34" value="" style="sketch=0;points=[[0,0,0],[0.25,0,0],[0.5,0,0],[0.75,0,0],[1,0,0],[0,1,0],[0.25,1,0],[0.5,1,0],[0.75,1,0],[1,1,0],[0,0.25,0],[0,0.5,0],[0,0.75,0],[1,0.25,0],[1,0.5,0],[1,0.75,0]];outlineConnect=0;fontColor=#232F3E;gradientColor=#945DF2;gradientDirection=north;fillColor=#5A30B5;strokeColor=#ffffff;dashed=0;verticalLabelPosition=bottom;verticalAlign=top;align=center;html=1;fontSize=12;fontStyle=0;aspect=fixed;shape=mxgraph.aws4.resourceIcon;resIcon=mxgraph.aws4.cloudfront;" vertex="1" parent="7fNUElX4PFvuTNSdqhNt-0">
                    <mxGeometry x="59" y="356" width="78" height="78" as="geometry"/>
                </mxCell>
                <mxCell id="7fNUElX4PFvuTNSdqhNt-40" style="edgeStyle=none;html=1;fontColor=#000000;strokeColor=#000000;" edge="1" parent="7fNUElX4PFvuTNSdqhNt-0" source="7fNUElX4PFvuTNSdqhNt-35" target="7fNUElX4PFvuTNSdqhNt-34">
                    <mxGeometry relative="1" as="geometry"/>
                </mxCell>
                <mxCell id="7fNUElX4PFvuTNSdqhNt-35" value="" style="sketch=0;points=[[0,0,0],[0.25,0,0],[0.5,0,0],[0.75,0,0],[1,0,0],[0,1,0],[0.25,1,0],[0.5,1,0],[0.75,1,0],[1,1,0],[0,0.25,0],[0,0.5,0],[0,0.75,0],[1,0.25,0],[1,0.5,0],[1,0.75,0]];outlineConnect=0;fontColor=#232F3E;gradientColor=#945DF2;gradientDirection=north;fillColor=#5A30B5;strokeColor=#ffffff;dashed=0;verticalLabelPosition=bottom;verticalAlign=top;align=center;html=1;fontSize=12;fontStyle=0;aspect=fixed;shape=mxgraph.aws4.resourceIcon;resIcon=mxgraph.aws4.cloudfront;" vertex="1" parent="7fNUElX4PFvuTNSdqhNt-0">
                    <mxGeometry x="59" y="509" width="78" height="78" as="geometry"/>
                </mxCell>
                <mxCell id="7fNUElX4PFvuTNSdqhNt-41" style="edgeStyle=none;html=1;fontColor=#000000;strokeColor=#000000;" edge="1" parent="7fNUElX4PFvuTNSdqhNt-0" source="7fNUElX4PFvuTNSdqhNt-36" target="7fNUElX4PFvuTNSdqhNt-35">
                    <mxGeometry relative="1" as="geometry"/>
                </mxCell>
                <mxCell id="7fNUElX4PFvuTNSdqhNt-66" style="edgeStyle=none;html=1;fontColor=#000000;strokeColor=#000000;" edge="1" parent="7fNUElX4PFvuTNSdqhNt-0" source="7fNUElX4PFvuTNSdqhNt-36" target="7fNUElX4PFvuTNSdqhNt-63">
                    <mxGeometry relative="1" as="geometry"/>
                </mxCell>
                <mxCell id="7fNUElX4PFvuTNSdqhNt-36" value="" style="outlineConnect=0;dashed=0;verticalLabelPosition=bottom;verticalAlign=top;align=center;html=1;shape=mxgraph.aws3.bucket_with_objects;fillColor=#E05243;gradientColor=none;fontColor=#000000;" vertex="1" parent="7fNUElX4PFvuTNSdqhNt-0">
                    <mxGeometry x="251" y="666.75" width="60" height="61.5" as="geometry"/>
                </mxCell>
                <mxCell id="7fNUElX4PFvuTNSdqhNt-37" value="" style="outlineConnect=0;dashed=0;verticalLabelPosition=bottom;verticalAlign=top;align=center;html=1;shape=mxgraph.aws3.dynamo_db;fillColor=#2E73B8;gradientColor=none;fontColor=#000000;" vertex="1" parent="7fNUElX4PFvuTNSdqhNt-0">
                    <mxGeometry x="684.5" y="657" width="72" height="81" as="geometry"/>
                </mxCell>
                <mxCell id="7fNUElX4PFvuTNSdqhNt-44" value="EKS" style="text;html=1;align=center;verticalAlign=middle;resizable=0;points=[];autosize=1;strokeColor=none;fillColor=none;fontColor=#000000;" vertex="1" parent="7fNUElX4PFvuTNSdqhNt-0">
                    <mxGeometry x="706" y="89" width="34" height="18" as="geometry"/>
                </mxCell>
                <mxCell id="7fNUElX4PFvuTNSdqhNt-49" style="edgeStyle=none;html=1;fontColor=#000000;strokeColor=#000000;" edge="1" parent="7fNUElX4PFvuTNSdqhNt-0" source="7fNUElX4PFvuTNSdqhNt-29" target="7fNUElX4PFvuTNSdqhNt-37">
                    <mxGeometry relative="1" as="geometry"/>
                </mxCell>
                <mxCell id="7fNUElX4PFvuTNSdqhNt-50" style="edgeStyle=none;html=1;fontColor=#000000;strokeColor=#000000;" edge="1" parent="7fNUElX4PFvuTNSdqhNt-0" source="7fNUElX4PFvuTNSdqhNt-47" target="7fNUElX4PFvuTNSdqhNt-37">
                    <mxGeometry relative="1" as="geometry"/>
                </mxCell>
                <mxCell id="7fNUElX4PFvuTNSdqhNt-72" style="edgeStyle=none;html=1;fontColor=#000000;strokeColor=#000000;" edge="1" parent="7fNUElX4PFvuTNSdqhNt-0" source="7fNUElX4PFvuTNSdqhNt-55" target="7fNUElX4PFvuTNSdqhNt-68">
                    <mxGeometry relative="1" as="geometry"/>
                </mxCell>
                <mxCell id="7fNUElX4PFvuTNSdqhNt-55" value="Next.js SPA&lt;br&gt;Cloudfront" style="text;html=1;align=center;verticalAlign=middle;resizable=0;points=[];autosize=1;strokeColor=none;fillColor=none;fontColor=#000000;" vertex="1" parent="7fNUElX4PFvuTNSdqhNt-0">
                    <mxGeometry x="62.5" y="320" width="73" height="32" as="geometry"/>
                </mxCell>
                <mxCell id="7fNUElX4PFvuTNSdqhNt-56" value="&lt;b&gt;Oferta &lt;/b&gt;&lt;br&gt;React&lt;br&gt;Micro Front-end" style="text;html=1;align=center;verticalAlign=middle;resizable=0;points=[];autosize=1;strokeColor=none;fillColor=none;fontColor=#000000;" vertex="1" parent="7fNUElX4PFvuTNSdqhNt-0">
                    <mxGeometry x="140" y="525" width="95" height="46" as="geometry"/>
                </mxCell>
                <mxCell id="7fNUElX4PFvuTNSdqhNt-57" value="S3 Bucket" style="text;html=1;align=center;verticalAlign=middle;resizable=0;points=[];autosize=1;strokeColor=none;fillColor=none;fontColor=#000000;" vertex="1" parent="7fNUElX4PFvuTNSdqhNt-0">
                    <mxGeometry x="251" y="734" width="65" height="18" as="geometry"/>
                </mxCell>
                <mxCell id="7fNUElX4PFvuTNSdqhNt-58" value="" style="sketch=0;points=[[0,0,0],[0.25,0,0],[0.5,0,0],[0.75,0,0],[1,0,0],[0,1,0],[0.25,1,0],[0.5,1,0],[0.75,1,0],[1,1,0],[0,0.25,0],[0,0.5,0],[0,0.75,0],[1,0.25,0],[1,0.5,0],[1,0.75,0]];outlineConnect=0;fontColor=#232F3E;gradientColor=#FF4F8B;gradientDirection=north;fillColor=#BC1356;strokeColor=#ffffff;dashed=0;verticalLabelPosition=bottom;verticalAlign=top;align=center;html=1;fontSize=12;fontStyle=0;aspect=fixed;shape=mxgraph.aws4.resourceIcon;resIcon=mxgraph.aws4.mq;" vertex="1" parent="7fNUElX4PFvuTNSdqhNt-0">
                    <mxGeometry x="486.5" y="658.5" width="78" height="78" as="geometry"/>
                </mxCell>
                <mxCell id="7fNUElX4PFvuTNSdqhNt-59" value="" style="outlineConnect=0;dashed=0;verticalLabelPosition=bottom;verticalAlign=top;align=center;html=1;shape=mxgraph.aws3.cloudwatch;fillColor=#759C3E;gradientColor=none;fontColor=#000000;" vertex="1" parent="7fNUElX4PFvuTNSdqhNt-0">
                    <mxGeometry x="59" y="67" width="82.5" height="93" as="geometry"/>
                </mxCell>
                <mxCell id="7fNUElX4PFvuTNSdqhNt-60" value="MQ" style="text;html=1;align=center;verticalAlign=middle;resizable=0;points=[];autosize=1;strokeColor=none;fillColor=none;fontColor=#000000;" vertex="1" parent="7fNUElX4PFvuTNSdqhNt-0">
                    <mxGeometry x="515.5" y="738" width="29" height="18" as="geometry"/>
                </mxCell>
                <mxCell id="7fNUElX4PFvuTNSdqhNt-62" value="Runtime loading with&lt;br&gt;Module Federation" style="text;html=1;align=center;verticalAlign=middle;resizable=0;points=[];autosize=1;strokeColor=none;fillColor=none;fontColor=#000000;" vertex="1" parent="7fNUElX4PFvuTNSdqhNt-0">
                    <mxGeometry x="97" y="468" width="121" height="32" as="geometry"/>
                </mxCell>
                <mxCell id="7fNUElX4PFvuTNSdqhNt-65" style="edgeStyle=none;html=1;fontColor=#000000;strokeColor=#000000;" edge="1" parent="7fNUElX4PFvuTNSdqhNt-0" source="7fNUElX4PFvuTNSdqhNt-63" target="7fNUElX4PFvuTNSdqhNt-34">
                    <mxGeometry relative="1" as="geometry">
                        <Array as="points">
                            <mxPoint x="12" y="537"/>
                        </Array>
                    </mxGeometry>
                </mxCell>
                <mxCell id="7fNUElX4PFvuTNSdqhNt-63" value="" style="sketch=0;points=[[0,0,0],[0.25,0,0],[0.5,0,0],[0.75,0,0],[1,0,0],[0,1,0],[0.25,1,0],[0.5,1,0],[0.75,1,0],[1,1,0],[0,0.25,0],[0,0.5,0],[0,0.75,0],[1,0.25,0],[1,0.5,0],[1,0.75,0]];outlineConnect=0;fontColor=#232F3E;gradientColor=#945DF2;gradientDirection=north;fillColor=#5A30B5;strokeColor=#ffffff;dashed=0;verticalLabelPosition=bottom;verticalAlign=top;align=center;html=1;fontSize=12;fontStyle=0;aspect=fixed;shape=mxgraph.aws4.resourceIcon;resIcon=mxgraph.aws4.cloudfront;" vertex="1" parent="7fNUElX4PFvuTNSdqhNt-0">
                    <mxGeometry x="59" y="656" width="78" height="78" as="geometry"/>
                </mxCell>
                <mxCell id="7fNUElX4PFvuTNSdqhNt-64" value="&lt;b&gt;Acordo&lt;/b&gt;&lt;br&gt;React&lt;br&gt;Micro Front-end" style="text;html=1;align=center;verticalAlign=middle;resizable=0;points=[];autosize=1;strokeColor=none;fillColor=none;fontColor=#000000;" vertex="1" parent="7fNUElX4PFvuTNSdqhNt-0">
                    <mxGeometry x="52.75" y="741" width="95" height="46" as="geometry"/>
                </mxCell>
                <mxCell id="7fNUElX4PFvuTNSdqhNt-67" value="DynamoDB" style="text;html=1;align=center;verticalAlign=middle;resizable=0;points=[];autosize=1;strokeColor=none;fillColor=none;fontColor=#000000;" vertex="1" parent="7fNUElX4PFvuTNSdqhNt-0">
                    <mxGeometry x="685" y="749" width="71" height="18" as="geometry"/>
                </mxCell>
                <mxCell id="7fNUElX4PFvuTNSdqhNt-68" value="Cloud Watch" style="text;html=1;align=center;verticalAlign=middle;resizable=0;points=[];autosize=1;strokeColor=none;fillColor=none;fontColor=#000000;" vertex="1" parent="7fNUElX4PFvuTNSdqhNt-0">
                    <mxGeometry x="59.5" y="164" width="78" height="18" as="geometry"/>
                </mxCell>
                <mxCell id="7fNUElX4PFvuTNSdqhNt-69" style="edgeStyle=none;html=1;fontColor=#000000;strokeColor=#000000;" edge="1" parent="7fNUElX4PFvuTNSdqhNt-0" source="7fNUElX4PFvuTNSdqhNt-29" target="7fNUElX4PFvuTNSdqhNt-58">
                    <mxGeometry relative="1" as="geometry"/>
                </mxCell>
                <mxCell id="7fNUElX4PFvuTNSdqhNt-70" style="edgeStyle=none;html=1;fontColor=#000000;strokeColor=#000000;" edge="1" parent="7fNUElX4PFvuTNSdqhNt-0" source="7fNUElX4PFvuTNSdqhNt-47" target="7fNUElX4PFvuTNSdqhNt-58">
                    <mxGeometry relative="1" as="geometry"/>
                </mxCell>
                <mxCell id="7fNUElX4PFvuTNSdqhNt-71" style="edgeStyle=none;html=1;fontColor=#000000;strokeColor=#000000;" edge="1" parent="7fNUElX4PFvuTNSdqhNt-0" source="7fNUElX4PFvuTNSdqhNt-21" target="7fNUElX4PFvuTNSdqhNt-59">
                    <mxGeometry relative="1" as="geometry"/>
                </mxCell>
                <mxCell id="7fNUElX4PFvuTNSdqhNt-39" style="edgeStyle=none;html=1;fontColor=#000000;strokeColor=#000000;" edge="1" parent="F4xuDANb7OEfPWtLHM5M-1" source="7fNUElX4PFvuTNSdqhNt-3" target="7fNUElX4PFvuTNSdqhNt-34">
                    <mxGeometry relative="1" as="geometry"/>
                </mxCell>
                <mxCell id="7fNUElX4PFvuTNSdqhNt-3" value="" style="sketch=0;outlineConnect=0;fontColor=#232F3E;gradientColor=none;fillColor=#232F3D;strokeColor=none;dashed=0;verticalLabelPosition=bottom;verticalAlign=top;align=center;html=1;fontSize=12;fontStyle=0;aspect=fixed;pointerEvents=1;shape=mxgraph.aws4.user;" vertex="1" parent="F4xuDANb7OEfPWtLHM5M-1">
                    <mxGeometry x="22" y="384" width="78" height="78" as="geometry"/>
                </mxCell>
                <mxCell id="7fNUElX4PFvuTNSdqhNt-54" value="Cliente" style="text;html=1;align=center;verticalAlign=middle;resizable=0;points=[];autosize=1;strokeColor=none;fillColor=none;fontColor=#000000;" vertex="1" parent="F4xuDANb7OEfPWtLHM5M-1">
                    <mxGeometry x="37.5" y="467" width="47" height="18" as="geometry"/>
                </mxCell>
            </root>
        </mxGraphModel>
    </diagram>
</mxfile>